<?xml version="1.0" encoding="UTF-8" standalone="no"?>
<!-- Created with Inkscape (http://www.inkscape.org/) -->

<svg
   width="74.599266mm"
   height="74.599266mm"
   viewBox="0 0 74.599266 74.599266"
   version="1.1"
   id="svg5"
   xml:space="preserve"
   xmlns:inkscape="http://www.inkscape.org/namespaces/inkscape"
   xmlns:sodipodi="http://sodipodi.sourceforge.net/DTD/sodipodi-0.dtd"
   xmlns="http://www.w3.org/2000/svg"
   xmlns:svg="http://www.w3.org/2000/svg"><sodipodi:namedview
     id="namedview7"
     pagecolor="#505050"
     bordercolor="#eeeeee"
     borderopacity="1"
     inkscape:showpageshadow="0"
     inkscape:pageopacity="0"
     inkscape:pagecheckerboard="0"
     inkscape:deskcolor="#505050"
     inkscape:document-units="mm"
     showgrid="false"
     inkscape:zoom="0.914906"
     inkscape:cx="245.9269"
     inkscape:cy="289.10074"
     inkscape:window-width="1350"
     inkscape:window-height="1230"
     inkscape:window-x="612"
     inkscape:window-y="1734"
     inkscape:window-maximized="0"
     inkscape:current-layer="layer1" /><defs
     id="defs2" /><g
     inkscape:label="Layer 1"
     inkscape:groupmode="layer"
     id="layer1"
     transform="translate(-25.744181,-24.009033)"><path
       d="M 84.801934,24.009031 H 41.285701 c -8.582029,0 -15.541519,6.95949 -15.541519,15.541507 v 43.516245 c 0,8.582029 6.95949,15.541518 15.541519,15.541518 h 43.516233 c 8.585142,0 15.541516,-6.959489 15.541516,-15.541518 V 39.550538 c 0,-8.582017 -6.956374,-15.541507 -15.541516,-15.541507 z M 50.610609,83.066783 H 41.285701 V 48.875446 h 9.324908 z M 45.948155,44.934126 c -3.002626,0 -5.439532,-2.455561 -5.439532,-5.483046 0,-3.027485 2.436906,-5.483046 5.439532,-5.483046 3.002615,0 5.439532,2.455561 5.439532,5.483046 0,3.027485 -2.433804,5.483046 -5.439532,5.483046 z m 41.962089,38.132657 h -9.324908 v -17.41893 c 0,-10.468768 -12.43322,-9.676148 -12.43322,0 v 17.41893 H 56.827207 V 48.875446 h 9.324909 v 5.48616 c 4.339199,-8.038077 21.758128,-8.631758 21.758128,7.696154 z"
       id="path1669"
       style="fill:#ffffff;stroke-width:3.1083"
       inkscape:export-filename="linkedin.svg"
       inkscape:export-xdpi="98.304"
       inkscape:export-ydpi="98.304" /></g></svg>
