<?xml version="1.0" encoding="UTF-8" standalone="no"?>
<!-- Created with Inkscape (http://www.inkscape.org/) -->

<svg
   width="185.81863mm"
   height="194.74995mm"
   viewBox="0 0 185.81863 194.74995"
   version="1.1"
   id="svg5"
   xml:space="preserve"
   xmlns:inkscape="http://www.inkscape.org/namespaces/inkscape"
   xmlns:sodipodi="http://sodipodi.sourceforge.net/DTD/sodipodi-0.dtd"
   xmlns="http://www.w3.org/2000/svg"
   xmlns:svg="http://www.w3.org/2000/svg"><sodipodi:namedview
     id="namedview7"
     pagecolor="#505050"
     bordercolor="#eeeeee"
     borderopacity="1"
     inkscape:showpageshadow="0"
     inkscape:pageopacity="0"
     inkscape:pagecheckerboard="0"
     inkscape:deskcolor="#505050"
     inkscape:document-units="mm"
     showgrid="false" /><defs
     id="defs2" /><g
     inkscape:label="Layer 1"
     inkscape:groupmode="layer"
     id="layer1"
     transform="translate(-13.538854,-10.1955)"><path
       style="fill:#ffffff;stroke:#fefefe;stroke-width:9.565;stroke-dasharray:none;stroke-opacity:1"
       d="m 170.05487,199.81675 c -0.43656,-0.19694 -3.08375,-2.78459 -5.88265,-5.75034 -7.47357,-7.91909 -13.66643,-13.73128 -23.4861,-22.04243 -6.44074,-5.4513 -11.81934,-10.32518 -14.51724,-13.15496 -3.90756,-4.09857 -3.91617,-4.10965 -3.82264,-4.92231 0.0722,-0.62786 0.21612,-0.73776 1.05744,-0.80775 0.90451,-0.0753 1.20391,0.12243 4.2075,2.77812 4.31269,3.81318 9.24228,7.96017 17.7414,14.92488 9.21964,7.55515 11.6447,9.73755 18.63917,16.77407 5.84312,5.87824 5.84312,5.87824 6.98387,1.88068 2.81611,-9.86857 4.20012,-13.28813 10.98787,-27.14861 2.95747,-6.03911 6.10423,-12.70661 6.99279,-14.81667 2.12288,-5.04119 3.18411,-6.07367 4.87541,-4.74329 1.82426,1.43496 0.54533,5.2025 -6.74591,19.87246 -7.51564,15.12145 -9.15982,19.28758 -12.52918,31.7472 -1.20855,4.46909 -1.67128,5.32313 -3.04652,5.62286 -0.3638,0.0793 -1.01864,-0.017 -1.45521,-0.21391 z m -6.70695,-31.20284 c -0.64176,-0.77327 -0.8288,-3.01223 -0.63394,-7.58873 0.10843,-2.54661 0.12667,-8.38067 0.0405,-12.96458 -0.12745,-6.7825 -0.26655,-9.0241 -0.74705,-12.03854 -1.23283,-7.73419 -4.91518,-20.53045 -8.4905,-29.50466 -3.72297,-9.344835 -8.98232,-16.645735 -15.37065,-21.337135 -7.6574,-5.62336 -20.82348,-11.37267 -26.9547,-11.77046 -1.44867,-0.094 -1.44867,-0.094 -1.65136,1.36121 -0.6945,4.98619 -2.68123,10.21255 -5.39114,14.18205 -3.93554,5.76481 -9.231044,9.64838 -15.863543,11.633855 -1.945124,0.58228 -3.062578,0.73239 -6.255077,0.84027 -3.877668,0.13102 -3.890841,0.12948 -5.55625,-0.65141 -2.463639,-1.155155 -4.501759,-3.148225 -5.701835,-5.575775 -0.96085,-1.94365 -0.997791,-2.12263 -1.088099,-5.27208 -0.09348,-3.26014 -0.09348,-3.26014 0.999784,-5.10038 1.449427,-2.43974 3.955031,-4.89882 7.104113,-6.97218 7.414066,-4.88144 17.216408,-8.32449 25.207857,-8.85419 2.76506,-0.18328 2.76506,-0.18328 2.69428,-4.15203 -0.29098,-16.31701 -6.883901,-26.64398 -23.20474,-36.34735 -8.033578,-4.776275 -14.860656,-7.718494 -21.035722,-9.065618 -2.279901,-0.497373 -3.143128,-0.536026 -9.525,-0.426503 -6.210106,0.106576 -7.444239,0.202292 -10.722048,0.831573 -5.275284,1.012761 -9.478246,2.322586 -13.890625,4.328922 -4.382553,1.992776 -4.497917,2.063666 -4.497917,2.764016 0,0.28442 -0.348029,0.86515 -0.773397,1.29052 -1.411022,1.41102 -3.731872,0.77923 -3.719492,-1.01254 0.0065,-0.94562 1.314159,-3.014507 2.427338,-3.840456 1.117771,-0.829356 6.760225,-3.434436 9.938185,-4.588386 6.709884,-2.436429 15.157974,-3.799795 23.57954,-3.805301 3.562551,-0.0023 4.903465,0.112799 7.546276,0.647908 7.217762,1.461432 16.264141,5.428031 25.04,10.979385 9.435101,5.96837 15.825642,12.65975 19.129792,20.03037 2.45659,5.47996 3.52561,10.45076 3.78899,17.61815 0.17257,4.69635 0.17257,4.69635 1.47879,4.69635 3.13324,0 11.36705,2.7018 18.0982,5.93864 14.53538,6.98972 22.52216,15.37965 28.47505,29.912405 2.78893,6.80861 6.82018,19.8716 8.12423,26.32604 1.36486,6.75542 1.46167,8.03265 1.45399,19.18229 -0.007,9.80408 -0.0492,10.78127 -0.57627,13.27162 -0.56208,2.65574 -1.07951,4.01623 -1.8706,4.91848 -0.48149,0.54915 -1.20343,0.60047 -1.60696,0.11425 z M 88.06238,96.154215 c 3.53613,-1.19975 6.295639,-2.81581 8.832529,-5.17262 3.881281,-3.60579 6.417801,-7.94506 7.836251,-13.40564 0.56481,-2.1743 0.86009,-4.11986 0.64543,-4.25253 -0.34741,-0.2147 -5.747221,0.41696 -7.949831,0.92996 -8.354411,1.94582 -17.461621,6.47288 -21.24707,10.56162 -2.006761,2.16754 -2.392799,3.10134 -2.243545,5.42704 0.146018,2.27524 0.92515,4.00357 2.409256,5.34437 1.70619,1.54144 2.303312,1.70244 5.867815,1.5822 2.751649,-0.0928 3.531571,-0.22809 5.849165,-1.0144 z"
       id="path302"
       inkscape:export-filename="squiggle2.svg"
       inkscape:export-xdpi="98.304"
       inkscape:export-ydpi="98.304" /></g></svg>
