<?xml version="1.0" encoding="UTF-8" standalone="no"?>
<!-- Created with Inkscape (http://www.inkscape.org/) -->

<svg
   width="100"
   height="100"
   viewBox="0 0 26.458333 26.458333"
   version="1.1"
   id="svg1"
   xml:space="preserve"
   sodipodi:docname="github_logo_tan.svg"
   inkscape:version="1.3.2 (091e20e, 2023-11-25)"
   xmlns:inkscape="http://www.inkscape.org/namespaces/inkscape"
   xmlns:sodipodi="http://sodipodi.sourceforge.net/DTD/sodipodi-0.dtd"
   xmlns="http://www.w3.org/2000/svg"
   xmlns:svg="http://www.w3.org/2000/svg"><sodipodi:namedview
     id="namedview1"
     pagecolor="#4a4a4a"
     bordercolor="#000000"
     borderopacity="0.25"
     inkscape:showpageshadow="2"
     inkscape:pageopacity="0.0"
     inkscape:pagecheckerboard="0"
     inkscape:deskcolor="#d1d1d1"
     inkscape:document-units="px"
     inkscape:zoom="2.8284271"
     inkscape:cx="38.53732"
     inkscape:cy="49.497475"
     inkscape:window-width="1920"
     inkscape:window-height="955"
     inkscape:window-x="1512"
     inkscape:window-y="25"
     inkscape:window-maximized="1"
     inkscape:current-layer="layer1" /><defs
     id="defs1" /><g
     inkscape:label="Layer 1"
     inkscape:groupmode="layer"
     id="layer1"
     style="display:inline"><path
       id="rect1"
       style="fill:#fcd6c5;stroke-width:0.264583;fill-opacity:1"
       d="M 0 0 L 0 26.458333 L 26.458333 26.458333 L 26.458333 0 L 0 0 z M 13.238468 2.1719604 C 19.443026 2.1719604 24.492379 7.2395026 24.473958 13.509253 C 24.473958 18.520998 21.250594 22.763229 16.778821 24.265185 C 16.219963 24.377831 16.015043 24.020906 16.015043 23.720516 C 16.015043 23.345257 16.03313 22.125329 16.03313 20.604944 C 16.03313 19.534914 15.679397 18.859346 15.269352 18.502746 C 17.784901 18.221015 20.41219 17.263757 20.41219 12.908773 C 20.41219 11.669888 19.983495 10.656428 19.256705 9.8681314 C 19.36843 9.5866294 19.76015 8.4226321 19.145084 6.8646972 C 19.145084 6.8646972 18.194555 6.5642723 16.051733 8.0284504 C 15.157239 7.7844974 14.188709 7.6527628 13.238468 7.6527628 A 10.820091 10.820091 0 0 0 10.424687 8.0284504 C 8.2820942 6.5642723 7.3318521 6.8646972 7.3318521 6.8646972 C 6.7167872 8.4226321 7.1085052 9.5866294 7.220231 9.8681314 C 6.5120998 10.656428 6.064746 11.669888 6.064746 12.908773 C 6.064746 17.263757 8.6920922 18.239905 11.188981 18.502746 C 10.872234 18.784248 10.574084 19.290979 10.481014 20.023067 C 9.8288601 20.323458 8.207616 20.811413 7.2016275 19.084623 C 7.2016275 19.084623 6.6050036 17.99597 5.4684 17.92087 C 5.4684 17.92087 4.3693376 17.92086 5.3939859 18.615401 C 5.3939859 18.615401 6.1393789 18.952998 6.6424885 20.26698 C 6.6424885 20.26698 7.294587 22.294199 10.425203 21.618318 C 10.425203 22.557042 10.44329 23.458189 10.44329 23.721032 C 10.44329 24.021192 10.2386 24.378062 9.6795124 24.265185 C 5.2077353 22.763689 1.984375 18.520998 1.984375 13.509253 C 1.984375 7.2395026 7.0152505 2.1719604 13.238468 2.1719604 z " /></g></svg>
