<?xml version="1.0" encoding="UTF-8" standalone="no"?>
<!-- Created with Inkscape (http://www.inkscape.org/) -->

<svg
   width="100"
   height="100"
   viewBox="0 0 26.458333 26.458333"
   version="1.1"
   id="svg1"
   xml:space="preserve"
   inkscape:version="1.3.2 (091e20e, 2023-11-25)"
   sodipodi:docname="github_logo.svg"
   xmlns:inkscape="http://www.inkscape.org/namespaces/inkscape"
   xmlns:sodipodi="http://sodipodi.sourceforge.net/DTD/sodipodi-0.dtd"
   xmlns="http://www.w3.org/2000/svg"
   xmlns:svg="http://www.w3.org/2000/svg"><sodipodi:namedview
     id="namedview1"
     pagecolor="#4a4a4a"
     bordercolor="#000000"
     borderopacity="0.25"
     inkscape:showpageshadow="2"
     inkscape:pageopacity="0.0"
     inkscape:pagecheckerboard="0"
     inkscape:deskcolor="#d1d1d1"
     inkscape:document-units="px"
     inkscape:zoom="2.8284271"
     inkscape:cx="38.53732"
     inkscape:cy="49.497475"
     inkscape:window-width="1920"
     inkscape:window-height="955"
     inkscape:window-x="1512"
     inkscape:window-y="25"
     inkscape:window-maximized="1"
     inkscape:current-layer="layer1" /><defs
     id="defs1" /><g
     inkscape:label="Layer 1"
     inkscape:groupmode="layer"
     id="layer1"
     style="display:inline"><path
       id="rect1"
       style="fill:#f9f9f9;stroke-width:0.264583"
       d="M 0 0 L 0 9.2960733 C 1.4499038 4.7285591 5.15806 1.1864648 9.80767 0 L 0 0 z M 16.666166 0 C 21.299547 1.1841566 25.008055 4.715022 26.458333 9.2697183 L 26.458333 0 L 16.666166 0 z M 6.1691324 5.3371419 C 6.0177308 5.3436691 5.9443399 5.3671142 5.9443399 5.3671142 C 5.1845538 7.2916224 5.6683497 8.7292275 5.8063639 9.0769652 C 4.9316134 10.050744 4.3790608 11.302939 4.3790608 12.833325 C 4.3790608 18.213014 7.6245148 19.41881 10.708907 19.743497 C 10.317632 20.091235 9.9489875 20.717075 9.8340249 21.621419 C 9.028422 21.992491 7.0258014 22.595412 5.7831095 20.462317 C 5.7831095 20.462317 5.0467117 19.117448 3.6426717 19.024678 C 3.6426717 19.024678 2.2844285 19.024545 3.5501709 19.882507 C 3.5501709 19.882507 4.471224 20.299538 5.0927123 21.922693 C 5.0927123 21.922693 5.8980649 24.427269 9.7652953 23.592358 C 9.7652953 24.751958 9.7880329 25.864927 9.7880329 26.189616 C 9.7880329 26.278228 9.772425 26.3706 9.7410074 26.458333 L 16.717326 26.458333 C 16.685887 26.370557 16.6703 26.277779 16.6703 26.189099 C 16.6703 25.725543 16.693038 24.218361 16.693038 22.340238 C 16.693038 21.018436 16.255953 20.184003 15.749426 19.743497 C 18.85687 19.395476 22.10201 18.213014 22.10201 12.833325 C 22.10201 11.302939 21.572506 10.050744 20.674707 9.0769652 C 20.81272 8.7292275 21.296517 7.2916224 20.536731 5.3671142 C 20.536731 5.3671142 19.363307 4.9960616 16.716292 6.8047525 C 15.611328 6.5033986 14.414363 6.3406982 13.240535 6.3406982 A 13.365997 13.365997 0 0 0 9.7647785 6.8047525 C 7.7797294 5.4482343 6.6233373 5.3175602 6.1691324 5.3371419 z M 0 17.850073 L 0 26.458333 L 7.7907388 26.458333 C 4.1017228 24.873052 1.2337872 21.731947 0 17.850073 z M 26.458333 17.850073 C 25.224547 21.731893 22.356602 24.872729 18.667594 26.458333 L 26.458333 26.458333 L 26.458333 17.850073 z " /></g></svg>
