<?xml version="1.0" encoding="UTF-8" standalone="no"?>
<!-- Created with Inkscape (http://www.inkscape.org/) -->

<svg
   width="100"
   height="100"
   viewBox="0 0 26.458333 26.458333"
   version="1.1"
   id="svg1"
   xml:space="preserve"
   sodipodi:docname="linkedin_logo.svg"
   inkscape:version="1.3.2 (091e20e, 2023-11-25)"
   xmlns:inkscape="http://www.inkscape.org/namespaces/inkscape"
   xmlns:sodipodi="http://sodipodi.sourceforge.net/DTD/sodipodi-0.dtd"
   xmlns="http://www.w3.org/2000/svg"
   xmlns:svg="http://www.w3.org/2000/svg"><sodipodi:namedview
     id="namedview1"
     pagecolor="#4a4a4a"
     bordercolor="#000000"
     borderopacity="0.25"
     inkscape:showpageshadow="2"
     inkscape:pageopacity="0.0"
     inkscape:pagecheckerboard="0"
     inkscape:deskcolor="#d1d1d1"
     inkscape:document-units="px"
     inkscape:zoom="2.8284271"
     inkscape:cx="38.53732"
     inkscape:cy="21.213203"
     inkscape:window-width="1920"
     inkscape:window-height="955"
     inkscape:window-x="1512"
     inkscape:window-y="25"
     inkscape:window-maximized="1"
     inkscape:current-layer="layer1" /><defs
     id="defs1" /><g
     inkscape:label="Layer 1"
     inkscape:groupmode="layer"
     id="layer1"
     style="display:inline"><path
       id="rect1"
       style="fill:#fcd6c5;stroke-width:0.264583;fill-opacity:1"
       d="M 0 0 L 0 26.458333 L 26.458333 26.458333 L 26.458333 0 L 0 0 z M 6.0265055 3.9687499 L 20.431828 3.9687499 C 21.568357 3.96875 22.489583 4.8899762 22.489583 6.0265055 L 22.489583 20.431828 C 22.489583 21.568357 21.568357 22.489583 20.431828 22.489583 L 6.0265055 22.489583 C 4.8899762 22.489583 3.9687499 21.568357 3.9687499 20.431828 L 3.9687499 6.0265055 C 3.96875 4.8899762 4.8899762 3.9687499 6.0265055 3.9687499 z " /><g
       fill="none"
       fill-rule="evenodd"
       id="g2"
       transform="matrix(0.22586382,0,0,0.22586382,6.1025357,4.585292)"
       style="fill:#fcd6c5;fill-opacity:1"><path
         d="M 61.163888,67.881404 H 48.995572 V 47.156035 c 0,-5.682328 -2.159143,-8.857803 -6.656717,-8.857803 -4.892774,0 -7.449045,3.304575 -7.449045,8.857803 V 67.881404 H 23.162961 V 28.399922 H 34.88981 v 5.31815 c 0,0 3.525959,-6.524368 11.904207,-6.524368 8.374392,0 14.369871,5.113903 14.369871,15.690469 z M 9.1728697,23.230141 c -3.9944158,0 -7.2312027,-3.262183 -7.2312027,-7.285479 0,-4.023296 3.2367869,-7.28548 7.2312027,-7.28548 3.9944153,0 7.2292733,3.262184 7.2292733,7.28548 0,4.023296 -3.234858,7.285479 -7.2292733,7.285479 z M 3.1176289,67.881404 H 15.345706 V 28.399922 H 3.1176289 Z"
         fill="#ffffff"
         id="path2"
         style="stroke-width:1.13889;fill:#fcd6c5;fill-opacity:1" /></g></g></svg>
